<mxfile host="65bd71144e">
    <diagram id="sR2jo2sd7JFA5nSFw-Vo" name="Page-1">
        <mxGraphModel dx="1612" dy="1134" grid="1" gridSize="10" guides="1" tooltips="1" connect="1" arrows="1" fold="1" page="1" pageScale="1" pageWidth="2336" pageHeight="1654" math="0" shadow="0">
            <root>
                <mxCell id="0"/>
                <mxCell id="1" parent="0"/>
                <mxCell id="2" value=" " style="swimlane;childLayout=stackLayout;resizeParent=1;resizeParentMax=0;horizontal=0;startSize=20;horizontalStack=0;fillColor=#60a917;strokeColor=#2D7600;fontColor=#ffffff;fontSize=13;" vertex="1" parent="1">
                    <mxGeometry x="83" y="80" width="2170" height="1150" as="geometry"/>
                </mxCell>
                <mxCell id="3" value="Customer" style="swimlane;startSize=20;horizontal=0;" vertex="1" parent="2">
                    <mxGeometry x="20" width="2150" height="260" as="geometry"/>
                </mxCell>
                <mxCell id="4" value="Postex" style="swimlane;startSize=20;horizontal=0;" vertex="1" parent="2">
                    <mxGeometry x="20" y="260" width="2150" height="790" as="geometry"/>
                </mxCell>
                <mxCell id="6" value="&lt;font style=&quot;font-size: 25px&quot;&gt;شروع&lt;/font&gt;" style="ellipse;whiteSpace=wrap;html=1;aspect=fixed;fillColor=#0050ef;strokeColor=#001DBC;fontColor=#ffffff;" vertex="1" parent="4">
                    <mxGeometry x="67" y="60" width="100" height="100" as="geometry"/>
                </mxCell>
                <mxCell id="7" value="&lt;font style=&quot;font-size: 25px&quot;&gt;پایان&lt;/font&gt;" style="ellipse;whiteSpace=wrap;html=1;aspect=fixed;fillColor=#0050ef;strokeColor=#001DBC;fontColor=#ffffff;" vertex="1" parent="4">
                    <mxGeometry x="2067" y="60" width="100" height="100" as="geometry"/>
                </mxCell>
                <mxCell id="39" value="Vendor" style="swimlane;startSize=20;horizontal=0;" vertex="1" parent="2">
                    <mxGeometry x="20" y="1050" width="2150" height="100" as="geometry"/>
                </mxCell>
            </root>
        </mxGraphModel>
    </diagram>
</mxfile>